<mxfile host="Electron" agent="Mozilla/5.0 (X11; Linux x86_64) AppleWebKit/537.36 (KHTML, like Gecko) draw.io/26.2.15 Chrome/134.0.6998.205 Electron/35.2.1 Safari/537.36" version="26.2.15">
  <diagram id="C5RBs43oDa-KdzZeNtuy" name="Page-1">
    <mxGraphModel dx="1337" dy="765" grid="1" gridSize="10" guides="1" tooltips="1" connect="1" arrows="1" fold="1" page="1" pageScale="1" pageWidth="827" pageHeight="1169" math="0" shadow="0">
      <root>
        <mxCell id="WIyWlLk6GJQsqaUBKTNV-0" />
        <mxCell id="WIyWlLk6GJQsqaUBKTNV-1" parent="WIyWlLk6GJQsqaUBKTNV-0" />
        <mxCell id="0BV56Q5OtNB6m9fzv5Ge-3" value="" style="edgeStyle=orthogonalEdgeStyle;rounded=0;orthogonalLoop=1;jettySize=auto;html=1;" parent="WIyWlLk6GJQsqaUBKTNV-1" source="WIyWlLk6GJQsqaUBKTNV-3" target="0BV56Q5OtNB6m9fzv5Ge-0" edge="1">
          <mxGeometry relative="1" as="geometry" />
        </mxCell>
        <mxCell id="WIyWlLk6GJQsqaUBKTNV-3" value="Program is started." style="rounded=1;whiteSpace=wrap;html=1;fontSize=12;glass=0;strokeWidth=1;shadow=0;" parent="WIyWlLk6GJQsqaUBKTNV-1" vertex="1">
          <mxGeometry x="165" y="80" width="120" height="40" as="geometry" />
        </mxCell>
        <mxCell id="0BV56Q5OtNB6m9fzv5Ge-2" value="" style="edgeStyle=orthogonalEdgeStyle;rounded=0;orthogonalLoop=1;jettySize=auto;html=1;" parent="WIyWlLk6GJQsqaUBKTNV-1" source="0BV56Q5OtNB6m9fzv5Ge-0" target="0BV56Q5OtNB6m9fzv5Ge-1" edge="1">
          <mxGeometry relative="1" as="geometry" />
        </mxCell>
        <mxCell id="0BV56Q5OtNB6m9fzv5Ge-0" value="Constructors registers init and cleanup functions into cmi." style="rounded=1;whiteSpace=wrap;html=1;fontSize=12;glass=0;strokeWidth=1;shadow=0;" parent="WIyWlLk6GJQsqaUBKTNV-1" vertex="1">
          <mxGeometry x="160" y="170" width="130" height="50" as="geometry" />
        </mxCell>
        <mxCell id="0BV56Q5OtNB6m9fzv5Ge-40" value="" style="edgeStyle=orthogonalEdgeStyle;rounded=0;orthogonalLoop=1;jettySize=auto;html=1;" parent="WIyWlLk6GJQsqaUBKTNV-1" source="0BV56Q5OtNB6m9fzv5Ge-1" target="0BV56Q5OtNB6m9fzv5Ge-39" edge="1">
          <mxGeometry relative="1" as="geometry" />
        </mxCell>
        <mxCell id="0BV56Q5OtNB6m9fzv5Ge-1" value="Cmi goes threw tree bottom up and execs inits." style="rounded=1;whiteSpace=wrap;html=1;fontSize=12;glass=0;strokeWidth=1;shadow=0;" parent="WIyWlLk6GJQsqaUBKTNV-1" vertex="1">
          <mxGeometry x="160" y="270" width="130" height="50" as="geometry" />
        </mxCell>
        <mxCell id="0BV56Q5OtNB6m9fzv5Ge-4" value="ROOT" style="ellipse;whiteSpace=wrap;html=1;aspect=fixed;" parent="WIyWlLk6GJQsqaUBKTNV-1" vertex="1">
          <mxGeometry x="620" y="50" width="80" height="80" as="geometry" />
        </mxCell>
        <mxCell id="0BV56Q5OtNB6m9fzv5Ge-12" value="" style="edgeStyle=orthogonalEdgeStyle;rounded=0;orthogonalLoop=1;jettySize=auto;html=1;endArrow=none;startFill=0;" parent="WIyWlLk6GJQsqaUBKTNV-1" source="0BV56Q5OtNB6m9fzv5Ge-5" target="0BV56Q5OtNB6m9fzv5Ge-8" edge="1">
          <mxGeometry relative="1" as="geometry" />
        </mxCell>
        <mxCell id="0BV56Q5OtNB6m9fzv5Ge-20" value="" style="edgeStyle=orthogonalEdgeStyle;rounded=0;orthogonalLoop=1;jettySize=auto;html=1;entryX=0.5;entryY=1;entryDx=0;entryDy=0;endArrow=none;startFill=0;" parent="WIyWlLk6GJQsqaUBKTNV-1" source="0BV56Q5OtNB6m9fzv5Ge-5" target="0BV56Q5OtNB6m9fzv5Ge-4" edge="1">
          <mxGeometry relative="1" as="geometry">
            <mxPoint x="510" y="80" as="targetPoint" />
            <Array as="points">
              <mxPoint x="510" y="170" />
              <mxPoint x="660" y="170" />
            </Array>
          </mxGeometry>
        </mxCell>
        <mxCell id="0BV56Q5OtNB6m9fzv5Ge-5" value="Module A" style="ellipse;whiteSpace=wrap;html=1;aspect=fixed;" parent="WIyWlLk6GJQsqaUBKTNV-1" vertex="1">
          <mxGeometry x="470" y="200" width="80" height="80" as="geometry" />
        </mxCell>
        <mxCell id="0BV56Q5OtNB6m9fzv5Ge-13" value="" style="edgeStyle=orthogonalEdgeStyle;rounded=0;orthogonalLoop=1;jettySize=auto;html=1;endArrow=none;startFill=0;" parent="WIyWlLk6GJQsqaUBKTNV-1" source="0BV56Q5OtNB6m9fzv5Ge-6" target="0BV56Q5OtNB6m9fzv5Ge-10" edge="1">
          <mxGeometry relative="1" as="geometry" />
        </mxCell>
        <mxCell id="0BV56Q5OtNB6m9fzv5Ge-16" value="" style="edgeStyle=orthogonalEdgeStyle;rounded=0;orthogonalLoop=1;jettySize=auto;html=1;endArrow=none;startFill=0;" parent="WIyWlLk6GJQsqaUBKTNV-1" source="0BV56Q5OtNB6m9fzv5Ge-6" target="0BV56Q5OtNB6m9fzv5Ge-4" edge="1">
          <mxGeometry relative="1" as="geometry" />
        </mxCell>
        <mxCell id="0BV56Q5OtNB6m9fzv5Ge-6" value="Module B" style="ellipse;whiteSpace=wrap;html=1;aspect=fixed;" parent="WIyWlLk6GJQsqaUBKTNV-1" vertex="1">
          <mxGeometry x="620" y="200" width="80" height="80" as="geometry" />
        </mxCell>
        <mxCell id="0BV56Q5OtNB6m9fzv5Ge-15" value="" style="edgeStyle=orthogonalEdgeStyle;rounded=0;orthogonalLoop=1;jettySize=auto;html=1;endArrow=none;startFill=0;" parent="WIyWlLk6GJQsqaUBKTNV-1" source="0BV56Q5OtNB6m9fzv5Ge-7" target="0BV56Q5OtNB6m9fzv5Ge-11" edge="1">
          <mxGeometry relative="1" as="geometry" />
        </mxCell>
        <mxCell id="0BV56Q5OtNB6m9fzv5Ge-18" value="" style="edgeStyle=orthogonalEdgeStyle;rounded=0;orthogonalLoop=1;jettySize=auto;html=1;entryX=0.5;entryY=1;entryDx=0;entryDy=0;endArrow=none;startFill=0;" parent="WIyWlLk6GJQsqaUBKTNV-1" source="0BV56Q5OtNB6m9fzv5Ge-7" target="0BV56Q5OtNB6m9fzv5Ge-4" edge="1">
          <mxGeometry relative="1" as="geometry">
            <mxPoint x="800" y="80" as="targetPoint" />
            <Array as="points">
              <mxPoint x="800" y="170" />
              <mxPoint x="660" y="170" />
            </Array>
          </mxGeometry>
        </mxCell>
        <mxCell id="0BV56Q5OtNB6m9fzv5Ge-7" value="Module C" style="ellipse;whiteSpace=wrap;html=1;aspect=fixed;" parent="WIyWlLk6GJQsqaUBKTNV-1" vertex="1">
          <mxGeometry x="760" y="200" width="80" height="80" as="geometry" />
        </mxCell>
        <mxCell id="0BV56Q5OtNB6m9fzv5Ge-8" value="Submodule&lt;div&gt;A_0&lt;/div&gt;" style="ellipse;whiteSpace=wrap;html=1;aspect=fixed;" parent="WIyWlLk6GJQsqaUBKTNV-1" vertex="1">
          <mxGeometry x="400" y="330" width="80" height="80" as="geometry" />
        </mxCell>
        <mxCell id="0BV56Q5OtNB6m9fzv5Ge-14" value="" style="edgeStyle=orthogonalEdgeStyle;rounded=0;orthogonalLoop=1;jettySize=auto;html=1;endArrow=none;startFill=0;" parent="WIyWlLk6GJQsqaUBKTNV-1" source="0BV56Q5OtNB6m9fzv5Ge-9" target="0BV56Q5OtNB6m9fzv5Ge-6" edge="1">
          <mxGeometry relative="1" as="geometry" />
        </mxCell>
        <mxCell id="0BV56Q5OtNB6m9fzv5Ge-9" value="Submodule&lt;div&gt;B_0&lt;/div&gt;" style="ellipse;whiteSpace=wrap;html=1;aspect=fixed;" parent="WIyWlLk6GJQsqaUBKTNV-1" vertex="1">
          <mxGeometry x="550" y="330" width="80" height="80" as="geometry" />
        </mxCell>
        <mxCell id="0BV56Q5OtNB6m9fzv5Ge-10" value="Submodule&lt;div&gt;B_1&lt;/div&gt;" style="ellipse;whiteSpace=wrap;html=1;aspect=fixed;" parent="WIyWlLk6GJQsqaUBKTNV-1" vertex="1">
          <mxGeometry x="680" y="330" width="80" height="80" as="geometry" />
        </mxCell>
        <mxCell id="0BV56Q5OtNB6m9fzv5Ge-11" value="Submodule&lt;div&gt;C_0&lt;/div&gt;" style="ellipse;whiteSpace=wrap;html=1;aspect=fixed;" parent="WIyWlLk6GJQsqaUBKTNV-1" vertex="1">
          <mxGeometry x="827" y="330" width="80" height="80" as="geometry" />
        </mxCell>
        <mxCell id="0BV56Q5OtNB6m9fzv5Ge-22" value="ROOT" style="ellipse;whiteSpace=wrap;html=1;aspect=fixed;" parent="WIyWlLk6GJQsqaUBKTNV-1" vertex="1">
          <mxGeometry x="626.5" y="510" width="80" height="80" as="geometry" />
        </mxCell>
        <mxCell id="0BV56Q5OtNB6m9fzv5Ge-23" value="" style="edgeStyle=orthogonalEdgeStyle;rounded=0;orthogonalLoop=1;jettySize=auto;html=1;endArrow=none;startFill=0;" parent="WIyWlLk6GJQsqaUBKTNV-1" source="0BV56Q5OtNB6m9fzv5Ge-25" target="0BV56Q5OtNB6m9fzv5Ge-32" edge="1">
          <mxGeometry relative="1" as="geometry" />
        </mxCell>
        <mxCell id="0BV56Q5OtNB6m9fzv5Ge-24" value="" style="edgeStyle=orthogonalEdgeStyle;rounded=0;orthogonalLoop=1;jettySize=auto;html=1;entryX=0.5;entryY=1;entryDx=0;entryDy=0;endArrow=none;startFill=0;" parent="WIyWlLk6GJQsqaUBKTNV-1" source="0BV56Q5OtNB6m9fzv5Ge-25" target="0BV56Q5OtNB6m9fzv5Ge-22" edge="1">
          <mxGeometry relative="1" as="geometry">
            <mxPoint x="516.5" y="540" as="targetPoint" />
            <Array as="points">
              <mxPoint x="516.5" y="630" />
              <mxPoint x="666.5" y="630" />
            </Array>
          </mxGeometry>
        </mxCell>
        <mxCell id="0BV56Q5OtNB6m9fzv5Ge-25" value="Module A" style="ellipse;whiteSpace=wrap;html=1;aspect=fixed;" parent="WIyWlLk6GJQsqaUBKTNV-1" vertex="1">
          <mxGeometry x="476.5" y="660" width="80" height="80" as="geometry" />
        </mxCell>
        <mxCell id="0BV56Q5OtNB6m9fzv5Ge-26" value="" style="edgeStyle=orthogonalEdgeStyle;rounded=0;orthogonalLoop=1;jettySize=auto;html=1;endArrow=none;startFill=0;" parent="WIyWlLk6GJQsqaUBKTNV-1" source="0BV56Q5OtNB6m9fzv5Ge-28" target="0BV56Q5OtNB6m9fzv5Ge-35" edge="1">
          <mxGeometry relative="1" as="geometry" />
        </mxCell>
        <mxCell id="0BV56Q5OtNB6m9fzv5Ge-27" value="" style="edgeStyle=orthogonalEdgeStyle;rounded=0;orthogonalLoop=1;jettySize=auto;html=1;endArrow=none;startFill=0;" parent="WIyWlLk6GJQsqaUBKTNV-1" source="0BV56Q5OtNB6m9fzv5Ge-28" target="0BV56Q5OtNB6m9fzv5Ge-22" edge="1">
          <mxGeometry relative="1" as="geometry" />
        </mxCell>
        <mxCell id="0BV56Q5OtNB6m9fzv5Ge-28" value="Module B" style="ellipse;whiteSpace=wrap;html=1;aspect=fixed;" parent="WIyWlLk6GJQsqaUBKTNV-1" vertex="1">
          <mxGeometry x="626.5" y="660" width="80" height="80" as="geometry" />
        </mxCell>
        <mxCell id="0BV56Q5OtNB6m9fzv5Ge-29" value="" style="edgeStyle=orthogonalEdgeStyle;rounded=0;orthogonalLoop=1;jettySize=auto;html=1;endArrow=none;startFill=0;" parent="WIyWlLk6GJQsqaUBKTNV-1" source="0BV56Q5OtNB6m9fzv5Ge-31" target="0BV56Q5OtNB6m9fzv5Ge-36" edge="1">
          <mxGeometry relative="1" as="geometry" />
        </mxCell>
        <mxCell id="0BV56Q5OtNB6m9fzv5Ge-30" value="" style="edgeStyle=orthogonalEdgeStyle;rounded=0;orthogonalLoop=1;jettySize=auto;html=1;entryX=0.5;entryY=1;entryDx=0;entryDy=0;endArrow=none;startFill=0;" parent="WIyWlLk6GJQsqaUBKTNV-1" source="0BV56Q5OtNB6m9fzv5Ge-31" target="0BV56Q5OtNB6m9fzv5Ge-22" edge="1">
          <mxGeometry relative="1" as="geometry">
            <mxPoint x="806.5" y="540" as="targetPoint" />
            <Array as="points">
              <mxPoint x="806.5" y="630" />
              <mxPoint x="666.5" y="630" />
            </Array>
          </mxGeometry>
        </mxCell>
        <mxCell id="0BV56Q5OtNB6m9fzv5Ge-31" value="Module C" style="ellipse;whiteSpace=wrap;html=1;aspect=fixed;" parent="WIyWlLk6GJQsqaUBKTNV-1" vertex="1">
          <mxGeometry x="766.5" y="660" width="80" height="80" as="geometry" />
        </mxCell>
        <mxCell id="0BV56Q5OtNB6m9fzv5Ge-32" value="Submodule&lt;div&gt;A_0&lt;/div&gt;" style="ellipse;whiteSpace=wrap;html=1;aspect=fixed;" parent="WIyWlLk6GJQsqaUBKTNV-1" vertex="1">
          <mxGeometry x="406.5" y="790" width="80" height="80" as="geometry" />
        </mxCell>
        <mxCell id="0BV56Q5OtNB6m9fzv5Ge-33" value="" style="edgeStyle=orthogonalEdgeStyle;rounded=0;orthogonalLoop=1;jettySize=auto;html=1;endArrow=none;startFill=0;" parent="WIyWlLk6GJQsqaUBKTNV-1" source="0BV56Q5OtNB6m9fzv5Ge-34" target="0BV56Q5OtNB6m9fzv5Ge-28" edge="1">
          <mxGeometry relative="1" as="geometry" />
        </mxCell>
        <mxCell id="0BV56Q5OtNB6m9fzv5Ge-34" value="Submodule&lt;div&gt;B_0&lt;/div&gt;" style="ellipse;whiteSpace=wrap;html=1;aspect=fixed;" parent="WIyWlLk6GJQsqaUBKTNV-1" vertex="1">
          <mxGeometry x="556.5" y="790" width="80" height="80" as="geometry" />
        </mxCell>
        <mxCell id="0BV56Q5OtNB6m9fzv5Ge-35" value="Submodule&lt;div&gt;B_1&lt;/div&gt;" style="ellipse;whiteSpace=wrap;html=1;aspect=fixed;" parent="WIyWlLk6GJQsqaUBKTNV-1" vertex="1">
          <mxGeometry x="686.5" y="790" width="80" height="80" as="geometry" />
        </mxCell>
        <mxCell id="0BV56Q5OtNB6m9fzv5Ge-36" value="Submodule&lt;div&gt;C_0&lt;/div&gt;" style="ellipse;whiteSpace=wrap;html=1;aspect=fixed;" parent="WIyWlLk6GJQsqaUBKTNV-1" vertex="1">
          <mxGeometry x="833.5" y="790" width="80" height="80" as="geometry" />
        </mxCell>
        <mxCell id="0BV56Q5OtNB6m9fzv5Ge-37" value="cmi_init" style="text;html=1;align=center;verticalAlign=middle;whiteSpace=wrap;rounded=0;fontSize=20;" parent="WIyWlLk6GJQsqaUBKTNV-1" vertex="1">
          <mxGeometry x="380" y="30" width="60" height="30" as="geometry" />
        </mxCell>
        <mxCell id="0BV56Q5OtNB6m9fzv5Ge-38" value="cmi_close" style="text;html=1;align=center;verticalAlign=middle;whiteSpace=wrap;rounded=0;fontSize=20;" parent="WIyWlLk6GJQsqaUBKTNV-1" vertex="1">
          <mxGeometry x="400" y="480" width="60" height="30" as="geometry" />
        </mxCell>
        <mxCell id="0BV56Q5OtNB6m9fzv5Ge-42" value="" style="edgeStyle=orthogonalEdgeStyle;rounded=0;orthogonalLoop=1;jettySize=auto;html=1;" parent="WIyWlLk6GJQsqaUBKTNV-1" source="0BV56Q5OtNB6m9fzv5Ge-39" target="0BV56Q5OtNB6m9fzv5Ge-41" edge="1">
          <mxGeometry relative="1" as="geometry" />
        </mxCell>
        <mxCell id="0BV56Q5OtNB6m9fzv5Ge-39" value="App runs." style="rounded=1;whiteSpace=wrap;html=1;fontSize=12;glass=0;strokeWidth=1;shadow=0;" parent="WIyWlLk6GJQsqaUBKTNV-1" vertex="1">
          <mxGeometry x="160" y="370" width="130" height="50" as="geometry" />
        </mxCell>
        <mxCell id="0BV56Q5OtNB6m9fzv5Ge-44" value="" style="edgeStyle=orthogonalEdgeStyle;rounded=0;orthogonalLoop=1;jettySize=auto;html=1;" parent="WIyWlLk6GJQsqaUBKTNV-1" source="0BV56Q5OtNB6m9fzv5Ge-41" target="0BV56Q5OtNB6m9fzv5Ge-43" edge="1">
          <mxGeometry relative="1" as="geometry" />
        </mxCell>
        <mxCell id="0BV56Q5OtNB6m9fzv5Ge-41" value="Cmi goes threw tree top bottom and execs closes." style="rounded=1;whiteSpace=wrap;html=1;fontSize=12;glass=0;strokeWidth=1;shadow=0;" parent="WIyWlLk6GJQsqaUBKTNV-1" vertex="1">
          <mxGeometry x="160" y="470" width="130" height="50" as="geometry" />
        </mxCell>
        <mxCell id="0BV56Q5OtNB6m9fzv5Ge-43" value="Program is finished." style="rounded=1;whiteSpace=wrap;html=1;fontSize=12;glass=0;strokeWidth=1;shadow=0;" parent="WIyWlLk6GJQsqaUBKTNV-1" vertex="1">
          <mxGeometry x="165" y="570" width="120" height="40" as="geometry" />
        </mxCell>
        <mxCell id="0BV56Q5OtNB6m9fzv5Ge-45" value="" style="endArrow=classic;html=1;rounded=0;" parent="WIyWlLk6GJQsqaUBKTNV-1" edge="1">
          <mxGeometry width="50" height="50" relative="1" as="geometry">
            <mxPoint x="360" y="390" as="sourcePoint" />
            <mxPoint x="510" y="140" as="targetPoint" />
          </mxGeometry>
        </mxCell>
        <mxCell id="0BV56Q5OtNB6m9fzv5Ge-46" value="" style="endArrow=none;html=1;rounded=0;startFill=1;startArrow=classic;" parent="WIyWlLk6GJQsqaUBKTNV-1" edge="1">
          <mxGeometry width="50" height="50" relative="1" as="geometry">
            <mxPoint x="360" y="850" as="sourcePoint" />
            <mxPoint x="510" y="600" as="targetPoint" />
          </mxGeometry>
        </mxCell>
        <mxCell id="0BV56Q5OtNB6m9fzv5Ge-47" value="&lt;font style=&quot;font-size: 20px;&quot;&gt;What constructor does?&lt;/font&gt;" style="text;html=1;align=center;verticalAlign=middle;whiteSpace=wrap;rounded=0;" parent="WIyWlLk6GJQsqaUBKTNV-1" vertex="1">
          <mxGeometry x="1000" y="30" width="220" height="90" as="geometry" />
        </mxCell>
        <mxCell id="0BV56Q5OtNB6m9fzv5Ge-52" value="Each module exposes global init tree node to which other modules can declare being a child.&lt;br&gt;&lt;br&gt;Module A can declare initNodeA, and then in submodule A_0 there is macro:&lt;br&gt;INIT_REGISTER(initNodeA, init_func, close_func).&lt;div&gt;&lt;br/&gt;&lt;/div&gt;" style="text;html=1;align=center;verticalAlign=middle;whiteSpace=wrap;rounded=0;" parent="WIyWlLk6GJQsqaUBKTNV-1" vertex="1">
          <mxGeometry x="1000" y="160" width="210" height="70" as="geometry" />
        </mxCell>
        <mxCell id="0BV56Q5OtNB6m9fzv5Ge-54" value="INIT_REGISTER creates function which adds child to parent." style="text;html=1;align=center;verticalAlign=middle;whiteSpace=wrap;rounded=0;" parent="WIyWlLk6GJQsqaUBKTNV-1" vertex="1">
          <mxGeometry x="1080" y="250" width="150" height="70" as="geometry" />
        </mxCell>
        <mxCell id="0BV56Q5OtNB6m9fzv5Ge-55" value="Module A does INIT_REGISTER on ROOT." style="text;html=1;align=center;verticalAlign=middle;whiteSpace=wrap;rounded=0;" parent="WIyWlLk6GJQsqaUBKTNV-1" vertex="1">
          <mxGeometry x="990" y="300" width="125" height="60" as="geometry" />
        </mxCell>
        <mxCell id="0BV56Q5OtNB6m9fzv5Ge-56" value="InitTreeNode" style="swimlane;fontStyle=0;childLayout=stackLayout;horizontal=1;startSize=30;horizontalStack=0;resizeParent=1;resizeParentMax=0;resizeLast=0;collapsible=1;marginBottom=0;whiteSpace=wrap;html=1;" parent="WIyWlLk6GJQsqaUBKTNV-1" vertex="1">
          <mxGeometry x="1320" y="280" width="140" height="90" as="geometry" />
        </mxCell>
        <mxCell id="0BV56Q5OtNB6m9fzv5Ge-57" value="int children_length" style="text;strokeColor=none;fillColor=none;align=left;verticalAlign=middle;spacingLeft=4;spacingRight=4;overflow=hidden;points=[[0,0.5],[1,0.5]];portConstraint=eastwest;rotatable=0;whiteSpace=wrap;html=1;" parent="0BV56Q5OtNB6m9fzv5Ge-56" vertex="1">
          <mxGeometry y="30" width="140" height="30" as="geometry" />
        </mxCell>
        <mxCell id="0BV56Q5OtNB6m9fzv5Ge-58" value="int *children" style="text;strokeColor=none;fillColor=none;align=left;verticalAlign=middle;spacingLeft=4;spacingRight=4;overflow=hidden;points=[[0,0.5],[1,0.5]];portConstraint=eastwest;rotatable=0;whiteSpace=wrap;html=1;" parent="0BV56Q5OtNB6m9fzv5Ge-56" vertex="1">
          <mxGeometry y="60" width="140" height="30" as="geometry" />
        </mxCell>
        <mxCell id="0BV56Q5OtNB6m9fzv5Ge-63" value="InitModule" style="swimlane;fontStyle=0;childLayout=stackLayout;horizontal=1;startSize=30;horizontalStack=0;resizeParent=1;resizeParentMax=0;resizeLast=0;collapsible=1;marginBottom=0;whiteSpace=wrap;html=1;" parent="WIyWlLk6GJQsqaUBKTNV-1" vertex="1">
          <mxGeometry x="1320" y="390" width="140" height="150" as="geometry" />
        </mxCell>
        <mxCell id="0BV56Q5OtNB6m9fzv5Ge-68" value="int priority" style="text;strokeColor=none;fillColor=none;align=left;verticalAlign=middle;spacingLeft=4;spacingRight=4;overflow=hidden;points=[[0,0.5],[1,0.5]];portConstraint=eastwest;rotatable=0;whiteSpace=wrap;html=1;" parent="0BV56Q5OtNB6m9fzv5Ge-63" vertex="1">
          <mxGeometry y="30" width="140" height="30" as="geometry" />
        </mxCell>
        <mxCell id="0BV56Q5OtNB6m9fzv5Ge-71" value="InitTreeNode _self" style="text;strokeColor=none;fillColor=none;align=left;verticalAlign=middle;spacingLeft=4;spacingRight=4;overflow=hidden;points=[[0,0.5],[1,0.5]];portConstraint=eastwest;rotatable=0;whiteSpace=wrap;html=1;" parent="0BV56Q5OtNB6m9fzv5Ge-63" vertex="1">
          <mxGeometry y="60" width="140" height="30" as="geometry" />
        </mxCell>
        <mxCell id="0BV56Q5OtNB6m9fzv5Ge-69" value="init_func" style="text;strokeColor=none;fillColor=none;align=left;verticalAlign=middle;spacingLeft=4;spacingRight=4;overflow=hidden;points=[[0,0.5],[1,0.5]];portConstraint=eastwest;rotatable=0;whiteSpace=wrap;html=1;" parent="0BV56Q5OtNB6m9fzv5Ge-63" vertex="1">
          <mxGeometry y="90" width="140" height="30" as="geometry" />
        </mxCell>
        <mxCell id="0BV56Q5OtNB6m9fzv5Ge-70" value="close_func" style="text;strokeColor=none;fillColor=none;align=left;verticalAlign=middle;spacingLeft=4;spacingRight=4;overflow=hidden;points=[[0,0.5],[1,0.5]];portConstraint=eastwest;rotatable=0;whiteSpace=wrap;html=1;" parent="0BV56Q5OtNB6m9fzv5Ge-63" vertex="1">
          <mxGeometry y="120" width="140" height="30" as="geometry" />
        </mxCell>
      </root>
    </mxGraphModel>
  </diagram>
</mxfile>
